<?xml version="1.0" encoding="utf-8" standalone="no"?>
<!DOCTYPE svg PUBLIC "-//W3C//DTD SVG 1.1//EN"
  "http://www.w3.org/Graphics/SVG/1.1/DTD/svg11.dtd">
<!-- Created with matplotlib (https://matplotlib.org/) -->
<svg height="432pt" version="1.1" viewBox="0 0 864 432" width="864pt" xmlns="http://www.w3.org/2000/svg" xmlns:xlink="http://www.w3.org/1999/xlink">
 <metadata>
  <rdf:RDF xmlns:cc="http://creativecommons.org/ns#" xmlns:dc="http://purl.org/dc/elements/1.1/" xmlns:rdf="http://www.w3.org/1999/02/22-rdf-syntax-ns#">
   <cc:Work>
    <dc:type rdf:resource="http://purl.org/dc/dcmitype/StillImage"/>
    <dc:date>2021-05-04T09:56:11.650760</dc:date>
    <dc:format>image/svg+xml</dc:format>
    <dc:creator>
     <cc:Agent>
      <dc:title>Matplotlib v3.3.4, https://matplotlib.org/</dc:title>
     </cc:Agent>
    </dc:creator>
   </cc:Work>
  </rdf:RDF>
 </metadata>
 <defs>
  <style type="text/css">*{stroke-linecap:butt;stroke-linejoin:round;}</style>
 </defs>
 <g id="figure_1">
  <g id="patch_1">
   <path d="M 0 432 
L 864 432 
L 864 0 
L 0 0 
z
" style="fill:none;"/>
  </g>
  <g id="axes_1">
   <g id="patch_2">
    <path d="M 108 200.094545 
L 777.6 200.094545 
L 777.6 51.84 
L 108 51.84 
z
" style="fill:#ffffff;"/>
   </g>
   <g id="patch_3">
    <path clip-path="url(#pbbb89a1b1b)" d="M 138.436364 124.454471 
L 166.105785 124.454471 
L 166.105785 102.341247 
L 138.436364 102.341247 
z
"/>
   </g>
   <g id="patch_4">
    <path clip-path="url(#pbbb89a1b1b)" d="M 217.491854 124.454471 
L 245.161275 124.454471 
L 245.161275 119.722126 
L 217.491854 119.722126 
z
"/>
   </g>
   <g id="patch_5">
    <path clip-path="url(#pbbb89a1b1b)" d="M 296.547344 124.454471 
L 324.216765 124.454471 
L 324.216765 73.838554 
L 296.547344 73.838554 
z
"/>
   </g>
   <g id="patch_6">
    <path clip-path="url(#pbbb89a1b1b)" d="M 375.602834 124.454471 
L 403.272255 124.454471 
L 403.272255 128.511502 
L 375.602834 128.511502 
z
"/>
   </g>
   <g id="patch_7">
    <path clip-path="url(#pbbb89a1b1b)" d="M 454.658323 124.454471 
L 482.327745 124.454471 
L 482.327745 116.635405 
L 454.658323 116.635405 
z
"/>
   </g>
   <g id="patch_8">
    <path clip-path="url(#pbbb89a1b1b)" d="M 533.713813 124.454471 
L 561.383235 124.454471 
L 561.383235 186.855415 
L 533.713813 186.855415 
z
"/>
   </g>
   <g id="patch_9">
    <path clip-path="url(#pbbb89a1b1b)" d="M 612.769303 124.454471 
L 640.438725 124.454471 
L 640.438725 123.047566 
L 612.769303 123.047566 
z
"/>
   </g>
   <g id="patch_10">
    <path clip-path="url(#pbbb89a1b1b)" d="M 691.824793 124.454471 
L 719.494215 124.454471 
L 719.494215 122.369226 
L 691.824793 122.369226 
z
"/>
   </g>
   <g id="patch_11">
    <path clip-path="url(#pbbb89a1b1b)" d="M 166.105785 124.454471 
L 193.775207 124.454471 
L 193.775207 143.355231 
L 166.105785 143.355231 
z
" style="fill:#808080;"/>
   </g>
   <g id="patch_12">
    <path clip-path="url(#pbbb89a1b1b)" d="M 245.161275 124.454471 
L 272.830697 124.454471 
L 272.830697 128.195387 
L 245.161275 128.195387 
z
" style="fill:#808080;"/>
   </g>
   <g id="patch_13">
    <path clip-path="url(#pbbb89a1b1b)" d="M 324.216765 124.454471 
L 351.886187 124.454471 
L 351.886187 119.146474 
L 324.216765 119.146474 
z
" style="fill:#808080;"/>
   </g>
   <g id="patch_14">
    <path clip-path="url(#pbbb89a1b1b)" d="M 403.272255 124.454471 
L 430.941677 124.454471 
L 430.941677 123.991493 
L 403.272255 123.991493 
z
" style="fill:#808080;"/>
   </g>
   <g id="patch_15">
    <path clip-path="url(#pbbb89a1b1b)" d="M 482.327745 124.454471 
L 509.997166 124.454471 
L 509.997166 121.37471 
L 482.327745 121.37471 
z
" style="fill:#808080;"/>
   </g>
   <g id="patch_16">
    <path clip-path="url(#pbbb89a1b1b)" d="M 561.383235 124.454471 
L 589.052656 124.454471 
L 589.052656 135.915728 
L 561.383235 135.915728 
z
" style="fill:#808080;"/>
   </g>
   <g id="patch_17">
    <path clip-path="url(#pbbb89a1b1b)" d="M 640.438725 124.454471 
L 668.108146 124.454471 
L 668.108146 120.125196 
L 640.438725 120.125196 
z
" style="fill:#808080;"/>
   </g>
   <g id="patch_18">
    <path clip-path="url(#pbbb89a1b1b)" d="M 719.494215 124.454471 
L 747.163636 124.454471 
L 747.163636 124.254388 
L 719.494215 124.254388 
z
" style="fill:#808080;"/>
   </g>
   <g id="matplotlib.axis_1"/>
   <g id="matplotlib.axis_2">
    <g id="ytick_1">
     <g id="line2d_1">
      <defs>
       <path d="M 0 0 
L -3.5 0 
" id="m4caecd372a" style="stroke:#000000;stroke-width:0.8;"/>
      </defs>
      <g>
       <use style="stroke:#000000;stroke-width:0.8;" x="108" xlink:href="#m4caecd372a" y="184.966531"/>
      </g>
     </g>
     <g id="text_1">
      <text style="font-family:DejaVu Sans;font-size:14px;font-stretch:normal;font-style:normal;font-weight:normal;text-anchor:end;" transform="rotate(-0, 101, 190.285437)" x="101" y="190.285437">−20</text>
     </g>
    </g>
    <g id="ytick_2">
     <g id="line2d_2">
      <g>
       <use style="stroke:#000000;stroke-width:0.8;" x="108" xlink:href="#m4caecd372a" y="154.710501"/>
      </g>
     </g>
     <g id="text_2">
      <text style="font-family:DejaVu Sans;font-size:14px;font-stretch:normal;font-style:normal;font-weight:normal;text-anchor:end;" transform="rotate(-0, 101, 160.029407)" x="101" y="160.029407">−10</text>
     </g>
    </g>
    <g id="ytick_3">
     <g id="line2d_3">
      <g>
       <use style="stroke:#000000;stroke-width:0.8;" x="108" xlink:href="#m4caecd372a" y="124.454471"/>
      </g>
     </g>
     <g id="text_3">
      <text style="font-family:DejaVu Sans;font-size:14px;font-stretch:normal;font-style:normal;font-weight:normal;text-anchor:end;" transform="rotate(-0, 101, 129.773377)" x="101" y="129.773377">0</text>
     </g>
    </g>
    <g id="ytick_4">
     <g id="line2d_4">
      <g>
       <use style="stroke:#000000;stroke-width:0.8;" x="108" xlink:href="#m4caecd372a" y="94.198442"/>
      </g>
     </g>
     <g id="text_4">
      <text style="font-family:DejaVu Sans;font-size:14px;font-stretch:normal;font-style:normal;font-weight:normal;text-anchor:end;" transform="rotate(-0, 101, 99.517348)" x="101" y="99.517348">10</text>
     </g>
    </g>
    <g id="ytick_5">
     <g id="line2d_5">
      <g>
       <use style="stroke:#000000;stroke-width:0.8;" x="108" xlink:href="#m4caecd372a" y="63.942412"/>
      </g>
     </g>
     <g id="text_5">
      <text style="font-family:DejaVu Sans;font-size:14px;font-stretch:normal;font-style:normal;font-weight:normal;text-anchor:end;" transform="rotate(-0, 101, 69.261318)" x="101" y="69.261318">20</text>
     </g>
    </g>
    <g id="text_6">
     <text style="font-family:DejaVu Sans;font-size:14px;font-stretch:normal;font-style:normal;font-weight:normal;text-anchor:middle;" transform="rotate(-90, 64.541875, 125.967273)" x="64.541875" y="125.967273">Coefficient</text>
    </g>
   </g>
   <g id="patch_19">
    <path d="M 108 200.094545 
L 108 51.84 
" style="fill:none;stroke:#000000;stroke-linecap:square;stroke-linejoin:miter;stroke-width:0.8;"/>
   </g>
   <g id="patch_20">
    <path d="M 108 200.094545 
L 777.6 200.094545 
" style="fill:none;stroke:#000000;stroke-linecap:square;stroke-linejoin:miter;stroke-width:0.8;"/>
   </g>
   <g id="text_7">
    <text style="font-family:DejaVu Sans;font-size:14px;font-stretch:normal;font-style:normal;font-weight:normal;text-anchor:start;" transform="rotate(-0, 306.824557, 63.942412)" x="306.824557" y="63.942412">*</text>
   </g>
   <g id="text_8">
    <text style="font-family:DejaVu Sans;font-size:14px;font-stretch:normal;font-style:normal;font-weight:normal;text-anchor:start;" transform="rotate(-0, 543.991027, 63.942412)" x="543.991027" y="63.942412">*</text>
   </g>
   <g id="text_9">
    <text style="fill:#808080;font-family:DejaVu Sans;font-size:14px;font-stretch:normal;font-style:normal;font-weight:normal;text-anchor:start;" transform="rotate(-0, 176.382999, 63.942412)" x="176.382999" y="63.942412">*</text>
   </g>
  </g>
  <g id="axes_2">
   <g id="patch_21">
    <path d="M 108 378 
L 777.6 378 
L 777.6 229.745455 
L 108 229.745455 
z
" style="fill:#ffffff;"/>
   </g>
   <g id="patch_22">
    <path clip-path="url(#pc66f633c26)" d="M 138.436364 274.221818 
L 166.105785 274.221818 
L 166.105785 302.466192 
L 138.436364 302.466192 
z
"/>
   </g>
   <g id="patch_23">
    <path clip-path="url(#pc66f633c26)" d="M 217.491854 274.221818 
L 245.161275 274.221818 
L 245.161275 279.268551 
L 217.491854 279.268551 
z
"/>
   </g>
   <g id="patch_24">
    <path clip-path="url(#pc66f633c26)" d="M 296.547344 274.221818 
L 324.216765 274.221818 
L 324.216765 266.897732 
L 296.547344 266.897732 
z
"/>
   </g>
   <g id="patch_25">
    <path clip-path="url(#pc66f633c26)" d="M 375.602834 274.221818 
L 403.272255 274.221818 
L 403.272255 274.099182 
L 375.602834 274.099182 
z
"/>
   </g>
   <g id="patch_26">
    <path clip-path="url(#pc66f633c26)" d="M 454.658323 274.221818 
L 482.327745 274.221818 
L 482.327745 251.345519 
L 454.658323 251.345519 
z
"/>
   </g>
   <g id="patch_27">
    <path clip-path="url(#pc66f633c26)" d="M 533.713813 274.221818 
L 561.383235 274.221818 
L 561.383235 319.669857 
L 533.713813 319.669857 
z
"/>
   </g>
   <g id="patch_28">
    <path clip-path="url(#pc66f633c26)" d="M 612.769303 274.221818 
L 640.438725 274.221818 
L 640.438725 266.037278 
L 612.769303 266.037278 
z
"/>
   </g>
   <g id="patch_29">
    <path clip-path="url(#pc66f633c26)" d="M 691.824793 274.221818 
L 719.494215 274.221818 
L 719.494215 261.897611 
L 691.824793 261.897611 
z
"/>
   </g>
   <g id="patch_30">
    <path clip-path="url(#pc66f633c26)" d="M 166.105785 274.221818 
L 193.775207 274.221818 
L 193.775207 342.487403 
L 166.105785 342.487403 
z
" style="fill:#808080;"/>
   </g>
   <g id="patch_31">
    <path clip-path="url(#pc66f633c26)" d="M 245.161275 274.221818 
L 272.830697 274.221818 
L 272.830697 275.982341 
L 245.161275 275.982341 
z
" style="fill:#808080;"/>
   </g>
   <g id="patch_32">
    <path clip-path="url(#pc66f633c26)" d="M 324.216765 274.221818 
L 351.886187 274.221818 
L 351.886187 264.679859 
L 324.216765 264.679859 
z
" style="fill:#808080;"/>
   </g>
   <g id="patch_33">
    <path clip-path="url(#pc66f633c26)" d="M 403.272255 274.221818 
L 430.941677 274.221818 
L 430.941677 269.261518 
L 403.272255 269.261518 
z
" style="fill:#808080;"/>
   </g>
   <g id="patch_34">
    <path clip-path="url(#pc66f633c26)" d="M 482.327745 274.221818 
L 509.997166 274.221818 
L 509.997166 269.909093 
L 482.327745 269.909093 
z
" style="fill:#808080;"/>
   </g>
   <g id="patch_35">
    <path clip-path="url(#pc66f633c26)" d="M 561.383235 274.221818 
L 589.052656 274.221818 
L 589.052656 302.914262 
L 561.383235 302.914262 
z
" style="fill:#808080;"/>
   </g>
   <g id="patch_36">
    <path clip-path="url(#pc66f633c26)" d="M 640.438725 274.221818 
L 668.108146 274.221818 
L 668.108146 259.318678 
L 640.438725 259.318678 
z
" style="fill:#808080;"/>
   </g>
   <g id="patch_37">
    <path clip-path="url(#pc66f633c26)" d="M 719.494215 274.221818 
L 747.163636 274.221818 
L 747.163636 271.570879 
L 719.494215 271.570879 
z
" style="fill:#808080;"/>
   </g>
   <g id="matplotlib.axis_3">
    <g id="xtick_1">
     <g id="line2d_6">
      <defs>
       <path d="M 0 0 
L 0 3.5 
" id="m48852e0086" style="stroke:#000000;stroke-width:0.8;"/>
      </defs>
      <g>
       <use style="stroke:#000000;stroke-width:0.8;" x="166.105785" xlink:href="#m48852e0086" y="378"/>
      </g>
     </g>
     <g id="text_10">
      <text style="font-family:DejaVu Sans;font-size:14px;font-stretch:normal;font-style:normal;font-weight:normal;text-anchor:middle;" transform="rotate(-0, 166.105785, 395.637812)" x="166.105785" y="395.637812">Int</text>
     </g>
    </g>
    <g id="xtick_2">
     <g id="line2d_7">
      <g>
       <use style="stroke:#000000;stroke-width:0.8;" x="245.161275" xlink:href="#m48852e0086" y="378"/>
      </g>
     </g>
     <g id="text_11">
      <text style="font-family:DejaVu Sans;font-size:14px;font-stretch:normal;font-style:normal;font-weight:normal;text-anchor:middle;" transform="rotate(-0, 245.161275, 395.637812)" x="245.161275" y="395.637812">PPTmean</text>
     </g>
    </g>
    <g id="xtick_3">
     <g id="line2d_8">
      <g>
       <use style="stroke:#000000;stroke-width:0.8;" x="324.216765" xlink:href="#m48852e0086" y="378"/>
      </g>
     </g>
     <g id="text_12">
      <text style="font-family:DejaVu Sans;font-size:14px;font-stretch:normal;font-style:normal;font-weight:normal;text-anchor:middle;" transform="rotate(-0, 324.216765, 395.637812)" x="324.216765" y="395.637812">Tmin</text>
     </g>
    </g>
    <g id="xtick_4">
     <g id="line2d_9">
      <g>
       <use style="stroke:#000000;stroke-width:0.8;" x="403.272255" xlink:href="#m48852e0086" y="378"/>
      </g>
     </g>
     <g id="text_13">
      <text style="font-family:DejaVu Sans;font-size:14px;font-stretch:normal;font-style:normal;font-weight:normal;text-anchor:middle;" transform="rotate(-0, 403.272255, 395.637812)" x="403.272255" y="395.637812">PDSImean</text>
     </g>
    </g>
    <g id="xtick_5">
     <g id="line2d_10">
      <g>
       <use style="stroke:#000000;stroke-width:0.8;" x="482.327745" xlink:href="#m48852e0086" y="378"/>
      </g>
     </g>
     <g id="text_14">
      <text style="font-family:DejaVu Sans;font-size:14px;font-stretch:normal;font-style:normal;font-weight:normal;text-anchor:middle;" transform="rotate(-0, 482.327745, 395.637812)" x="482.327745" y="395.637812">CWDmax</text>
     </g>
    </g>
    <g id="xtick_6">
     <g id="line2d_11">
      <g>
       <use style="stroke:#000000;stroke-width:0.8;" x="561.383235" xlink:href="#m48852e0086" y="378"/>
      </g>
     </g>
     <g id="text_15">
      <text style="font-family:DejaVu Sans;font-size:14px;font-stretch:normal;font-style:normal;font-weight:normal;text-anchor:middle;" transform="rotate(-0, 561.383235, 395.637812)" x="561.383235" y="395.637812">PETmin</text>
     </g>
    </g>
    <g id="xtick_7">
     <g id="line2d_12">
      <g>
       <use style="stroke:#000000;stroke-width:0.8;" x="640.438725" xlink:href="#m48852e0086" y="378"/>
      </g>
     </g>
     <g id="text_16">
      <text style="font-family:DejaVu Sans;font-size:14px;font-stretch:normal;font-style:normal;font-weight:normal;text-anchor:middle;" transform="rotate(-0, 640.438725, 395.637812)" x="640.438725" y="395.637812">VPDmean</text>
     </g>
    </g>
    <g id="xtick_8">
     <g id="line2d_13">
      <g>
       <use style="stroke:#000000;stroke-width:0.8;" x="719.494215" xlink:href="#m48852e0086" y="378"/>
      </g>
     </g>
     <g id="text_17">
      <text style="font-family:DejaVu Sans;font-size:14px;font-stretch:normal;font-style:normal;font-weight:normal;text-anchor:middle;" transform="rotate(-0, 719.494215, 395.637812)" x="719.494215" y="395.637812">Age</text>
     </g>
    </g>
   </g>
   <g id="matplotlib.axis_4">
    <g id="ytick_6">
     <g id="line2d_14">
      <g>
       <use style="stroke:#000000;stroke-width:0.8;" x="108" xlink:href="#m4caecd372a" y="363.174545"/>
      </g>
     </g>
     <g id="text_18">
      <text style="font-family:DejaVu Sans;font-size:14px;font-stretch:normal;font-style:normal;font-weight:normal;text-anchor:end;" transform="rotate(-0, 101, 368.493452)" x="101" y="368.493452">−6</text>
     </g>
    </g>
    <g id="ytick_7">
     <g id="line2d_15">
      <g>
       <use style="stroke:#000000;stroke-width:0.8;" x="108" xlink:href="#m4caecd372a" y="333.523636"/>
      </g>
     </g>
     <g id="text_19">
      <text style="font-family:DejaVu Sans;font-size:14px;font-stretch:normal;font-style:normal;font-weight:normal;text-anchor:end;" transform="rotate(-0, 101, 338.842543)" x="101" y="338.842543">−4</text>
     </g>
    </g>
    <g id="ytick_8">
     <g id="line2d_16">
      <g>
       <use style="stroke:#000000;stroke-width:0.8;" x="108" xlink:href="#m4caecd372a" y="303.872727"/>
      </g>
     </g>
     <g id="text_20">
      <text style="font-family:DejaVu Sans;font-size:14px;font-stretch:normal;font-style:normal;font-weight:normal;text-anchor:end;" transform="rotate(-0, 101, 309.191634)" x="101" y="309.191634">−2</text>
     </g>
    </g>
    <g id="ytick_9">
     <g id="line2d_17">
      <g>
       <use style="stroke:#000000;stroke-width:0.8;" x="108" xlink:href="#m4caecd372a" y="274.221818"/>
      </g>
     </g>
     <g id="text_21">
      <text style="font-family:DejaVu Sans;font-size:14px;font-stretch:normal;font-style:normal;font-weight:normal;text-anchor:end;" transform="rotate(-0, 101, 279.540724)" x="101" y="279.540724">0</text>
     </g>
    </g>
    <g id="ytick_10">
     <g id="line2d_18">
      <g>
       <use style="stroke:#000000;stroke-width:0.8;" x="108" xlink:href="#m4caecd372a" y="244.570909"/>
      </g>
     </g>
     <g id="text_22">
      <text style="font-family:DejaVu Sans;font-size:14px;font-stretch:normal;font-style:normal;font-weight:normal;text-anchor:end;" transform="rotate(-0, 101, 249.889815)" x="101" y="249.889815">2</text>
     </g>
    </g>
    <g id="text_23">
     <text style="font-family:DejaVu Sans;font-size:14px;font-stretch:normal;font-style:normal;font-weight:normal;text-anchor:middle;" transform="rotate(-90, 73.449375, 303.872727)" x="73.449375" y="303.872727">Coefficient</text>
    </g>
   </g>
   <g id="patch_38">
    <path d="M 108 378 
L 108 229.745455 
" style="fill:none;stroke:#000000;stroke-linecap:square;stroke-linejoin:miter;stroke-width:0.8;"/>
   </g>
   <g id="patch_39">
    <path d="M 108 378 
L 777.6 378 
" style="fill:none;stroke:#000000;stroke-linecap:square;stroke-linejoin:miter;stroke-width:0.8;"/>
   </g>
   <g id="text_24">
    <text style="font-family:DejaVu Sans;font-size:14px;font-stretch:normal;font-style:normal;font-weight:normal;text-anchor:start;" transform="rotate(-0, 148.713577, 237.158182)" x="148.713577" y="237.158182">*</text>
   </g>
   <g id="text_25">
    <text style="font-family:DejaVu Sans;font-size:14px;font-stretch:normal;font-style:normal;font-weight:normal;text-anchor:start;" transform="rotate(-0, 464.935537, 237.158182)" x="464.935537" y="237.158182">*</text>
   </g>
   <g id="text_26">
    <text style="font-family:DejaVu Sans;font-size:14px;font-stretch:normal;font-style:normal;font-weight:normal;text-anchor:start;" transform="rotate(-0, 543.991027, 237.158182)" x="543.991027" y="237.158182">*</text>
   </g>
   <g id="text_27">
    <text style="font-family:DejaVu Sans;font-size:14px;font-stretch:normal;font-style:normal;font-weight:normal;text-anchor:start;" transform="rotate(-0, 702.102007, 237.158182)" x="702.102007" y="237.158182">*</text>
   </g>
   <g id="text_28">
    <text style="fill:#808080;font-family:DejaVu Sans;font-size:14px;font-stretch:normal;font-style:normal;font-weight:normal;text-anchor:start;" transform="rotate(-0, 176.382999, 237.158182)" x="176.382999" y="237.158182">*</text>
   </g>
   <g id="text_29">
    <text style="fill:#808080;font-family:DejaVu Sans;font-size:14px;font-stretch:normal;font-style:normal;font-weight:normal;text-anchor:start;" transform="rotate(-0, 334.493979, 237.158182)" x="334.493979" y="237.158182">*</text>
   </g>
   <g id="text_30">
    <text style="fill:#808080;font-family:DejaVu Sans;font-size:14px;font-stretch:normal;font-style:normal;font-weight:normal;text-anchor:start;" transform="rotate(-0, 413.549469, 237.158182)" x="413.549469" y="237.158182">*</text>
   </g>
   <g id="text_31">
    <text style="fill:#808080;font-family:DejaVu Sans;font-size:14px;font-stretch:normal;font-style:normal;font-weight:normal;text-anchor:start;" transform="rotate(-0, 571.660449, 237.158182)" x="571.660449" y="237.158182">*</text>
   </g>
   <g id="text_32">
    <text style="fill:#808080;font-family:DejaVu Sans;font-size:14px;font-stretch:normal;font-style:normal;font-weight:normal;text-anchor:start;" transform="rotate(-0, 650.715939, 237.158182)" x="650.715939" y="237.158182">*</text>
   </g>
   <g id="text_33">
    <text style="fill:#808080;font-family:DejaVu Sans;font-size:14px;font-stretch:normal;font-style:normal;font-weight:normal;text-anchor:start;" transform="rotate(-0, 729.771429, 237.158182)" x="729.771429" y="237.158182">*</text>
   </g>
  </g>
 </g>
 <defs>
  <clipPath id="pbbb89a1b1b">
   <rect height="148.254545" width="669.6" x="108" y="51.84"/>
  </clipPath>
  <clipPath id="pc66f633c26">
   <rect height="148.254545" width="669.6" x="108" y="229.745455"/>
  </clipPath>
 </defs>
</svg>
